<mxfile host="app.diagrams.net" modified="2023-03-24T10:41:07.674Z" agent="Mozilla/5.0 (Windows NT 10.0; Win64; x64) AppleWebKit/537.36 (KHTML, like Gecko) Chrome/111.0.0.0 Safari/537.36" etag="5atDHEaCVMq4mbIsWZfT" version="21.1.0" type="github">
  <diagram name="Page-1" id="ovaMx1BlKtIJrgPWmryp">
    <mxGraphModel dx="5652" dy="2620" grid="1" gridSize="10" guides="1" tooltips="1" connect="1" arrows="1" fold="1" page="1" pageScale="1" pageWidth="1700" pageHeight="1100" background="none" math="0" shadow="0">
      <root>
        <mxCell id="0" />
        <mxCell id="1" parent="0" />
        <mxCell id="cWptr_9K2KnEI4ltxLWX-1" value="USER" style="rounded=0;whiteSpace=wrap;html=1;fillColor=#fff2cc;strokeColor=#d6b656;fontStyle=1" parent="1" vertex="1">
          <mxGeometry x="300" y="560" width="120" height="60" as="geometry" />
        </mxCell>
        <mxCell id="cWptr_9K2KnEI4ltxLWX-2" value="" style="endArrow=none;html=1;rounded=0;" parent="1" target="cWptr_9K2KnEI4ltxLWX-3" edge="1">
          <mxGeometry width="50" height="50" relative="1" as="geometry">
            <mxPoint x="360" y="560" as="sourcePoint" />
            <mxPoint x="360" y="490" as="targetPoint" />
          </mxGeometry>
        </mxCell>
        <mxCell id="cWptr_9K2KnEI4ltxLWX-3" value="FULL_NAME" style="ellipse;whiteSpace=wrap;html=1;fillColor=#d5e8d4;strokeColor=#82b366;" parent="1" vertex="1">
          <mxGeometry x="300" y="410" width="120" height="40" as="geometry" />
        </mxCell>
        <mxCell id="cWptr_9K2KnEI4ltxLWX-4" value="" style="endArrow=none;html=1;rounded=0;exitX=0.5;exitY=0;exitDx=0;exitDy=0;" parent="1" source="cWptr_9K2KnEI4ltxLWX-1" target="cWptr_9K2KnEI4ltxLWX-5" edge="1">
          <mxGeometry width="50" height="50" relative="1" as="geometry">
            <mxPoint x="190" y="610" as="sourcePoint" />
            <mxPoint x="190" y="540" as="targetPoint" />
          </mxGeometry>
        </mxCell>
        <mxCell id="cWptr_9K2KnEI4ltxLWX-5" value="HANDLE" style="ellipse;whiteSpace=wrap;html=1;fillColor=#d5e8d4;strokeColor=#82b366;" parent="1" vertex="1">
          <mxGeometry x="170" y="410" width="120" height="40" as="geometry" />
        </mxCell>
        <mxCell id="cWptr_9K2KnEI4ltxLWX-6" value="" style="endArrow=none;html=1;rounded=0;entryX=0.5;entryY=1;entryDx=0;entryDy=0;" parent="1" target="cWptr_9K2KnEI4ltxLWX-7" edge="1">
          <mxGeometry width="50" height="50" relative="1" as="geometry">
            <mxPoint x="360" y="560" as="sourcePoint" />
            <mxPoint x="488.4436404739645" y="448.66465276034796" as="targetPoint" />
          </mxGeometry>
        </mxCell>
        <mxCell id="cWptr_9K2KnEI4ltxLWX-7" value="DISPLAY_NAME" style="ellipse;whiteSpace=wrap;html=1;fillColor=#d5e8d4;strokeColor=#82b366;" parent="1" vertex="1">
          <mxGeometry x="435" y="410" width="120" height="40" as="geometry" />
        </mxCell>
        <mxCell id="cWptr_9K2KnEI4ltxLWX-9" value="ORGANIZATION" style="rounded=0;whiteSpace=wrap;html=1;fillColor=#fff2cc;strokeColor=#d6b656;fontStyle=1" parent="1" vertex="1">
          <mxGeometry x="960" y="560" width="120" height="60" as="geometry" />
        </mxCell>
        <mxCell id="cWptr_9K2KnEI4ltxLWX-15" value="" style="endArrow=none;html=1;rounded=0;entryX=1;entryY=0.5;entryDx=0;entryDy=0;exitX=0;exitY=0.5;exitDx=0;exitDy=0;" parent="1" source="cWptr_9K2KnEI4ltxLWX-1" target="cWptr_9K2KnEI4ltxLWX-98" edge="1">
          <mxGeometry width="50" height="50" relative="1" as="geometry">
            <mxPoint x="290" y="590" as="sourcePoint" />
            <mxPoint x="140" y="560" as="targetPoint" />
          </mxGeometry>
        </mxCell>
        <mxCell id="cWptr_9K2KnEI4ltxLWX-17" value="" style="endArrow=none;html=1;rounded=0;" parent="1" target="cWptr_9K2KnEI4ltxLWX-18" edge="1">
          <mxGeometry width="50" height="50" relative="1" as="geometry">
            <mxPoint x="1020" y="560" as="sourcePoint" />
            <mxPoint x="880" y="490" as="targetPoint" />
          </mxGeometry>
        </mxCell>
        <mxCell id="cWptr_9K2KnEI4ltxLWX-18" value="ORG_COUNTRY" style="ellipse;whiteSpace=wrap;html=1;fillColor=#d5e8d4;strokeColor=#82b366;" parent="1" vertex="1">
          <mxGeometry x="810" y="405" width="120" height="40" as="geometry" />
        </mxCell>
        <mxCell id="cWptr_9K2KnEI4ltxLWX-19" value="" style="endArrow=none;html=1;rounded=0;exitX=0.5;exitY=0;exitDx=0;exitDy=0;" parent="1" source="cWptr_9K2KnEI4ltxLWX-9" edge="1">
          <mxGeometry width="50" height="50" relative="1" as="geometry">
            <mxPoint x="1020" y="550" as="sourcePoint" />
            <mxPoint x="1020" y="450" as="targetPoint" />
          </mxGeometry>
        </mxCell>
        <mxCell id="cWptr_9K2KnEI4ltxLWX-21" value="" style="endArrow=none;html=1;rounded=0;exitX=0.5;exitY=0;exitDx=0;exitDy=0;" parent="1" source="cWptr_9K2KnEI4ltxLWX-9" target="cWptr_9K2KnEI4ltxLWX-22" edge="1">
          <mxGeometry width="50" height="50" relative="1" as="geometry">
            <mxPoint x="620" y="570" as="sourcePoint" />
            <mxPoint x="760" y="500" as="targetPoint" />
          </mxGeometry>
        </mxCell>
        <mxCell id="cWptr_9K2KnEI4ltxLWX-22" value="ORG_HANDLE" style="ellipse;whiteSpace=wrap;html=1;fillColor=#d5e8d4;strokeColor=#82b366;" parent="1" vertex="1">
          <mxGeometry x="1120" y="405" width="120" height="40" as="geometry" />
        </mxCell>
        <mxCell id="cWptr_9K2KnEI4ltxLWX-25" value="" style="endArrow=none;html=1;rounded=0;entryX=0;entryY=0.5;entryDx=0;entryDy=0;exitX=1;exitY=0.5;exitDx=0;exitDy=0;" parent="1" source="cWptr_9K2KnEI4ltxLWX-9" target="cWptr_9K2KnEI4ltxLWX-26" edge="1">
          <mxGeometry width="50" height="50" relative="1" as="geometry">
            <mxPoint x="1130" y="580" as="sourcePoint" />
            <mxPoint x="1130" y="930" as="targetPoint" />
          </mxGeometry>
        </mxCell>
        <mxCell id="cWptr_9K2KnEI4ltxLWX-26" value="&lt;u&gt;ORG_ID&lt;/u&gt;" style="ellipse;whiteSpace=wrap;html=1;fillColor=#d5e8d4;strokeColor=#82b366;fontStyle=1" parent="1" vertex="1">
          <mxGeometry x="1240" y="570" width="120" height="40" as="geometry" />
        </mxCell>
        <mxCell id="cWptr_9K2KnEI4ltxLWX-49" value="POST" style="rounded=0;whiteSpace=wrap;html=1;fillColor=#fff2cc;strokeColor=#d6b656;fontStyle=1" parent="1" vertex="1">
          <mxGeometry x="620" y="870" width="120" height="60" as="geometry" />
        </mxCell>
        <mxCell id="cWptr_9K2KnEI4ltxLWX-50" value="" style="endArrow=none;html=1;rounded=0;entryX=1;entryY=0.5;entryDx=0;entryDy=0;exitX=0;exitY=0.5;exitDx=0;exitDy=0;" parent="1" target="cWptr_9K2KnEI4ltxLWX-51" edge="1">
          <mxGeometry width="50" height="50" relative="1" as="geometry">
            <mxPoint x="620" y="900" as="sourcePoint" />
            <mxPoint x="660" y="1100" as="targetPoint" />
          </mxGeometry>
        </mxCell>
        <mxCell id="cWptr_9K2KnEI4ltxLWX-51" value="&lt;u&gt;POST_ID&lt;/u&gt;" style="ellipse;whiteSpace=wrap;html=1;fillColor=#d5e8d4;strokeColor=#82b366;fontStyle=1" parent="1" vertex="1">
          <mxGeometry x="390" y="880" width="120" height="40" as="geometry" />
        </mxCell>
        <mxCell id="cWptr_9K2KnEI4ltxLWX-54" value="" style="endArrow=none;html=1;rounded=0;exitX=0.5;exitY=1;exitDx=0;exitDy=0;" parent="1" source="cWptr_9K2KnEI4ltxLWX-49" target="cWptr_9K2KnEI4ltxLWX-55" edge="1">
          <mxGeometry width="50" height="50" relative="1" as="geometry">
            <mxPoint x="880" y="1050" as="sourcePoint" />
            <mxPoint x="820" y="1030" as="targetPoint" />
          </mxGeometry>
        </mxCell>
        <mxCell id="cWptr_9K2KnEI4ltxLWX-55" value="TEXT" style="ellipse;whiteSpace=wrap;html=1;fillColor=#d5e8d4;strokeColor=#82b366;" parent="1" vertex="1">
          <mxGeometry x="490" y="1045" width="120" height="40" as="geometry" />
        </mxCell>
        <mxCell id="cWptr_9K2KnEI4ltxLWX-64" value="" style="endArrow=none;html=1;rounded=0;exitX=1;exitY=0.5;exitDx=0;exitDy=0;" parent="1" source="cWptr_9K2KnEI4ltxLWX-79" edge="1">
          <mxGeometry width="50" height="50" relative="1" as="geometry">
            <mxPoint x="610" y="750" as="sourcePoint" />
            <mxPoint x="1020" y="620" as="targetPoint" />
            <Array as="points">
              <mxPoint x="1020" y="750" />
            </Array>
          </mxGeometry>
        </mxCell>
        <mxCell id="cWptr_9K2KnEI4ltxLWX-69" value="ORG_MAIL" style="ellipse;shape=doubleEllipse;margin=3;whiteSpace=wrap;html=1;align=center;fillColor=#d5e8d4;strokeColor=#82b366;" parent="1" vertex="1">
          <mxGeometry x="970" y="405" width="110" height="50" as="geometry" />
        </mxCell>
        <mxCell id="cWptr_9K2KnEI4ltxLWX-70" value="" style="shape=link;html=1;rounded=0;exitX=1;exitY=0.5;exitDx=0;exitDy=0;" parent="1" source="cWptr_9K2KnEI4ltxLWX-81" edge="1">
          <mxGeometry relative="1" as="geometry">
            <mxPoint x="850" y="590" as="sourcePoint" />
            <mxPoint x="960" y="590" as="targetPoint" />
          </mxGeometry>
        </mxCell>
        <mxCell id="cWptr_9K2KnEI4ltxLWX-71" value="N" style="resizable=0;html=1;whiteSpace=wrap;align=right;verticalAlign=bottom;fontSize=15;fontStyle=1" parent="cWptr_9K2KnEI4ltxLWX-70" connectable="0" vertex="1">
          <mxGeometry x="1" relative="1" as="geometry">
            <mxPoint x="-30" y="-10" as="offset" />
          </mxGeometry>
        </mxCell>
        <mxCell id="cWptr_9K2KnEI4ltxLWX-72" value="" style="shape=link;html=1;rounded=0;exitX=0.5;exitY=1;exitDx=0;exitDy=0;entryX=0.5;entryY=0;entryDx=0;entryDy=0;" parent="1" source="cWptr_9K2KnEI4ltxLWX-79" target="cWptr_9K2KnEI4ltxLWX-49" edge="1">
          <mxGeometry relative="1" as="geometry">
            <mxPoint x="680" y="800" as="sourcePoint" />
            <mxPoint x="900" y="850" as="targetPoint" />
          </mxGeometry>
        </mxCell>
        <mxCell id="cWptr_9K2KnEI4ltxLWX-73" value="N" style="resizable=0;html=1;whiteSpace=wrap;align=right;verticalAlign=bottom;fontSize=16;fontStyle=1" parent="cWptr_9K2KnEI4ltxLWX-72" connectable="0" vertex="1">
          <mxGeometry x="1" relative="1" as="geometry">
            <mxPoint x="20" y="-20" as="offset" />
          </mxGeometry>
        </mxCell>
        <mxCell id="cWptr_9K2KnEI4ltxLWX-74" value="FIRST_NAME" style="ellipse;whiteSpace=wrap;html=1;fillColor=#d5e8d4;strokeColor=#82b366;" parent="1" vertex="1">
          <mxGeometry x="235" y="300" width="120" height="40" as="geometry" />
        </mxCell>
        <mxCell id="cWptr_9K2KnEI4ltxLWX-75" value="LAST_NAME" style="ellipse;whiteSpace=wrap;html=1;fillColor=#d5e8d4;strokeColor=#82b366;" parent="1" vertex="1">
          <mxGeometry x="370" y="300" width="120" height="40" as="geometry" />
        </mxCell>
        <mxCell id="cWptr_9K2KnEI4ltxLWX-77" value="" style="endArrow=none;html=1;rounded=0;entryX=0.5;entryY=1;entryDx=0;entryDy=0;exitX=0.5;exitY=0;exitDx=0;exitDy=0;fillColor=#d5e8d4;strokeColor=#82b366;" parent="1" source="cWptr_9K2KnEI4ltxLWX-3" target="cWptr_9K2KnEI4ltxLWX-75" edge="1">
          <mxGeometry width="50" height="50" relative="1" as="geometry">
            <mxPoint x="540" y="350" as="sourcePoint" />
            <mxPoint x="430" y="350" as="targetPoint" />
          </mxGeometry>
        </mxCell>
        <mxCell id="cWptr_9K2KnEI4ltxLWX-78" value="" style="endArrow=none;html=1;rounded=0;entryX=0.5;entryY=1;entryDx=0;entryDy=0;fillColor=#d5e8d4;strokeColor=#82b366;" parent="1" target="cWptr_9K2KnEI4ltxLWX-74" edge="1">
          <mxGeometry width="50" height="50" relative="1" as="geometry">
            <mxPoint x="360" y="410" as="sourcePoint" />
            <mxPoint x="440" y="350" as="targetPoint" />
          </mxGeometry>
        </mxCell>
        <mxCell id="cWptr_9K2KnEI4ltxLWX-79" value="&lt;b&gt;Upload&lt;/b&gt;" style="shape=rhombus;double=1;perimeter=rhombusPerimeter;whiteSpace=wrap;html=1;align=center;fillColor=#f8cecc;strokeColor=#b85450;" parent="1" vertex="1">
          <mxGeometry x="620" y="720" width="120" height="60" as="geometry" />
        </mxCell>
        <mxCell id="cWptr_9K2KnEI4ltxLWX-81" value="Create" style="shape=rhombus;double=1;perimeter=rhombusPerimeter;whiteSpace=wrap;html=1;align=center;fillColor=#f8cecc;strokeColor=#b85450;fontStyle=1" parent="1" vertex="1">
          <mxGeometry x="620" y="560" width="120" height="60" as="geometry" />
        </mxCell>
        <mxCell id="cWptr_9K2KnEI4ltxLWX-83" value="" style="endArrow=none;html=1;rounded=0;exitX=0.5;exitY=1;exitDx=0;exitDy=0;entryX=0.5;entryY=0;entryDx=0;entryDy=0;" parent="1" source="cWptr_9K2KnEI4ltxLWX-1" target="cWptr_9K2KnEI4ltxLWX-79" edge="1">
          <mxGeometry relative="1" as="geometry">
            <mxPoint x="400" y="695" as="sourcePoint" />
            <mxPoint x="560" y="695" as="targetPoint" />
            <Array as="points">
              <mxPoint x="360" y="720" />
            </Array>
          </mxGeometry>
        </mxCell>
        <mxCell id="cWptr_9K2KnEI4ltxLWX-84" value="1" style="resizable=0;html=1;whiteSpace=wrap;align=right;verticalAlign=bottom;fontSize=16;fontStyle=1" parent="cWptr_9K2KnEI4ltxLWX-83" connectable="0" vertex="1">
          <mxGeometry x="1" relative="1" as="geometry">
            <mxPoint x="-300" y="-60" as="offset" />
          </mxGeometry>
        </mxCell>
        <mxCell id="cWptr_9K2KnEI4ltxLWX-85" value="" style="endArrow=none;html=1;rounded=0;exitX=1;exitY=0.5;exitDx=0;exitDy=0;entryX=0;entryY=0.5;entryDx=0;entryDy=0;" parent="1" source="cWptr_9K2KnEI4ltxLWX-1" target="cWptr_9K2KnEI4ltxLWX-81" edge="1">
          <mxGeometry relative="1" as="geometry">
            <mxPoint x="494.62" y="630" as="sourcePoint" />
            <mxPoint x="494.62" y="730" as="targetPoint" />
          </mxGeometry>
        </mxCell>
        <mxCell id="cWptr_9K2KnEI4ltxLWX-86" value="1" style="resizable=0;html=1;whiteSpace=wrap;align=right;verticalAlign=bottom;fontSize=15;fontStyle=1" parent="cWptr_9K2KnEI4ltxLWX-85" connectable="0" vertex="1">
          <mxGeometry x="1" relative="1" as="geometry">
            <mxPoint x="-160" y="30" as="offset" />
          </mxGeometry>
        </mxCell>
        <mxCell id="cWptr_9K2KnEI4ltxLWX-87" value="PROFILE_URL" style="ellipse;whiteSpace=wrap;html=1;fillColor=#d5e8d4;strokeColor=#82b366;" parent="1" vertex="1">
          <mxGeometry x="20" y="480" width="120" height="40" as="geometry" />
        </mxCell>
        <mxCell id="cWptr_9K2KnEI4ltxLWX-88" value="" style="endArrow=none;html=1;rounded=0;entryX=1;entryY=0.5;entryDx=0;entryDy=0;" parent="1" target="cWptr_9K2KnEI4ltxLWX-87" edge="1">
          <mxGeometry width="50" height="50" relative="1" as="geometry">
            <mxPoint x="300" y="590" as="sourcePoint" />
            <mxPoint x="180" y="520" as="targetPoint" />
          </mxGeometry>
        </mxCell>
        <mxCell id="cWptr_9K2KnEI4ltxLWX-89" value="PROFILE_URL" style="ellipse;whiteSpace=wrap;html=1;fillColor=#d5e8d4;strokeColor=#82b366;" parent="1" vertex="1">
          <mxGeometry x="1240" y="510" width="120" height="40" as="geometry" />
        </mxCell>
        <mxCell id="cWptr_9K2KnEI4ltxLWX-90" value="" style="endArrow=none;html=1;rounded=0;entryX=0;entryY=0.5;entryDx=0;entryDy=0;exitX=1;exitY=0.5;exitDx=0;exitDy=0;" parent="1" source="cWptr_9K2KnEI4ltxLWX-9" target="cWptr_9K2KnEI4ltxLWX-89" edge="1">
          <mxGeometry width="50" height="50" relative="1" as="geometry">
            <mxPoint x="1460" y="580" as="sourcePoint" />
            <mxPoint x="1340" y="510" as="targetPoint" />
          </mxGeometry>
        </mxCell>
        <mxCell id="cWptr_9K2KnEI4ltxLWX-91" value="MOMENT_AGO" style="ellipse;whiteSpace=wrap;html=1;align=center;dashed=1;fillColor=#d5e8d4;strokeColor=#82b366;" parent="1" vertex="1">
          <mxGeometry x="390" y="940" width="120" height="50" as="geometry" />
        </mxCell>
        <mxCell id="cWptr_9K2KnEI4ltxLWX-92" value="" style="endArrow=none;html=1;rounded=0;entryX=1;entryY=0.5;entryDx=0;entryDy=0;" parent="1" target="cWptr_9K2KnEI4ltxLWX-91" edge="1">
          <mxGeometry width="50" height="50" relative="1" as="geometry">
            <mxPoint x="620" y="900" as="sourcePoint" />
            <mxPoint x="520" y="910" as="targetPoint" />
          </mxGeometry>
        </mxCell>
        <mxCell id="cWptr_9K2KnEI4ltxLWX-93" value="ABOUT" style="ellipse;whiteSpace=wrap;html=1;fillColor=#d5e8d4;strokeColor=#82b366;" parent="1" vertex="1">
          <mxGeometry x="20" y="600" width="120" height="40" as="geometry" />
        </mxCell>
        <mxCell id="cWptr_9K2KnEI4ltxLWX-94" value="" style="endArrow=none;html=1;rounded=0;entryX=1;entryY=0.5;entryDx=0;entryDy=0;exitX=0;exitY=0.5;exitDx=0;exitDy=0;" parent="1" source="cWptr_9K2KnEI4ltxLWX-1" target="cWptr_9K2KnEI4ltxLWX-93" edge="1">
          <mxGeometry width="50" height="50" relative="1" as="geometry">
            <mxPoint x="300" y="710" as="sourcePoint" />
            <mxPoint x="180" y="640" as="targetPoint" />
          </mxGeometry>
        </mxCell>
        <mxCell id="cWptr_9K2KnEI4ltxLWX-95" value="ABOUT" style="ellipse;whiteSpace=wrap;html=1;fillColor=#d5e8d4;strokeColor=#82b366;" parent="1" vertex="1">
          <mxGeometry x="1240" y="640" width="120" height="40" as="geometry" />
        </mxCell>
        <mxCell id="cWptr_9K2KnEI4ltxLWX-96" value="" style="endArrow=none;html=1;rounded=0;entryX=0;entryY=0.5;entryDx=0;entryDy=0;" parent="1" target="cWptr_9K2KnEI4ltxLWX-95" edge="1">
          <mxGeometry width="50" height="50" relative="1" as="geometry">
            <mxPoint x="1080" y="590" as="sourcePoint" />
            <mxPoint x="1350" y="640" as="targetPoint" />
          </mxGeometry>
        </mxCell>
        <mxCell id="cWptr_9K2KnEI4ltxLWX-97" value="COUNTRY" style="ellipse;whiteSpace=wrap;html=1;fillColor=#d5e8d4;strokeColor=#82b366;" parent="1" vertex="1">
          <mxGeometry x="20" y="655" width="120" height="40" as="geometry" />
        </mxCell>
        <mxCell id="cWptr_9K2KnEI4ltxLWX-98" value="USER_ID" style="ellipse;whiteSpace=wrap;html=1;align=center;fontStyle=5;fillColor=#d5e8d4;strokeColor=#82b366;" parent="1" vertex="1">
          <mxGeometry x="20" y="540" width="120" height="50" as="geometry" />
        </mxCell>
        <mxCell id="cWptr_9K2KnEI4ltxLWX-99" value="" style="endArrow=none;html=1;rounded=0;entryX=1;entryY=0.5;entryDx=0;entryDy=0;" parent="1" target="cWptr_9K2KnEI4ltxLWX-97" edge="1">
          <mxGeometry width="50" height="50" relative="1" as="geometry">
            <mxPoint x="300" y="590" as="sourcePoint" />
            <mxPoint x="150" y="630" as="targetPoint" />
          </mxGeometry>
        </mxCell>
        <mxCell id="p4hdSAo7ATjIJQ8qtVKv-2" value="COMMENT" style="whiteSpace=wrap;html=1;align=center;fontStyle=1;fillColor=#fff2cc;strokeColor=#d6b656;" parent="1" vertex="1">
          <mxGeometry x="-87.5" y="930" width="110" height="50" as="geometry" />
        </mxCell>
        <mxCell id="p4hdSAo7ATjIJQ8qtVKv-3" value="TEXT" style="ellipse;whiteSpace=wrap;html=1;align=center;fontStyle=0;fillColor=#d5e8d4;strokeColor=#82b366;" parent="1" vertex="1">
          <mxGeometry x="-315" y="930" width="115" height="50" as="geometry" />
        </mxCell>
        <mxCell id="p4hdSAo7ATjIJQ8qtVKv-4" value="COMT_ID" style="ellipse;whiteSpace=wrap;html=1;align=center;fontStyle=5;fillColor=#d5e8d4;strokeColor=#82b366;" parent="1" vertex="1">
          <mxGeometry x="-317.5" y="870" width="120" height="50" as="geometry" />
        </mxCell>
        <mxCell id="p4hdSAo7ATjIJQ8qtVKv-6" value="MOMENT_AGO" style="ellipse;whiteSpace=wrap;html=1;align=center;dashed=1;fillColor=#d5e8d4;strokeColor=#82b366;fontStyle=0" parent="1" vertex="1">
          <mxGeometry x="-320" y="990" width="120" height="50" as="geometry" />
        </mxCell>
        <mxCell id="p4hdSAo7ATjIJQ8qtVKv-7" value="" style="endArrow=none;html=1;rounded=0;entryX=0;entryY=0.5;entryDx=0;entryDy=0;exitX=1;exitY=0.5;exitDx=0;exitDy=0;" parent="1" source="p4hdSAo7ATjIJQ8qtVKv-4" target="p4hdSAo7ATjIJQ8qtVKv-2" edge="1">
          <mxGeometry relative="1" as="geometry">
            <mxPoint x="-167.5" y="894.5" as="sourcePoint" />
            <mxPoint x="-7.5" y="894.5" as="targetPoint" />
          </mxGeometry>
        </mxCell>
        <mxCell id="p4hdSAo7ATjIJQ8qtVKv-8" value="" style="endArrow=none;html=1;rounded=0;entryX=0;entryY=0.5;entryDx=0;entryDy=0;exitX=1;exitY=0.5;exitDx=0;exitDy=0;" parent="1" source="p4hdSAo7ATjIJQ8qtVKv-3" target="p4hdSAo7ATjIJQ8qtVKv-2" edge="1">
          <mxGeometry relative="1" as="geometry">
            <mxPoint x="-177.5" y="964.5" as="sourcePoint" />
            <mxPoint x="-92.49999999999955" y="960" as="targetPoint" />
          </mxGeometry>
        </mxCell>
        <mxCell id="p4hdSAo7ATjIJQ8qtVKv-10" value="" style="endArrow=none;html=1;rounded=0;entryX=0;entryY=0.5;entryDx=0;entryDy=0;exitX=1;exitY=0.5;exitDx=0;exitDy=0;" parent="1" source="p4hdSAo7ATjIJQ8qtVKv-6" target="p4hdSAo7ATjIJQ8qtVKv-2" edge="1">
          <mxGeometry relative="1" as="geometry">
            <mxPoint x="-170" y="1014.5" as="sourcePoint" />
            <mxPoint x="-85" y="1010" as="targetPoint" />
          </mxGeometry>
        </mxCell>
        <mxCell id="p4hdSAo7ATjIJQ8qtVKv-14" value="COMMENTS" style="shape=rhombus;double=1;perimeter=rhombusPerimeter;whiteSpace=wrap;html=1;align=center;fillColor=#f8cecc;strokeColor=#b85450;fontStyle=1" parent="1" vertex="1">
          <mxGeometry x="-92.5" y="800" width="120" height="60" as="geometry" />
        </mxCell>
        <mxCell id="p4hdSAo7ATjIJQ8qtVKv-15" value="" style="shape=link;html=1;rounded=0;exitX=0.5;exitY=0;exitDx=0;exitDy=0;entryX=0.5;entryY=1;entryDx=0;entryDy=0;" parent="1" source="p4hdSAo7ATjIJQ8qtVKv-2" target="p4hdSAo7ATjIJQ8qtVKv-14" edge="1">
          <mxGeometry relative="1" as="geometry">
            <mxPoint x="50" y="760" as="sourcePoint" />
            <mxPoint x="210" y="760" as="targetPoint" />
          </mxGeometry>
        </mxCell>
        <mxCell id="p4hdSAo7ATjIJQ8qtVKv-16" value="N" style="resizable=0;html=1;whiteSpace=wrap;align=right;verticalAlign=bottom;fontSize=16;fontStyle=1" parent="p4hdSAo7ATjIJQ8qtVKv-15" connectable="0" vertex="1">
          <mxGeometry x="1" relative="1" as="geometry">
            <mxPoint x="23" y="60" as="offset" />
          </mxGeometry>
        </mxCell>
        <mxCell id="p4hdSAo7ATjIJQ8qtVKv-18" value="" style="endArrow=none;html=1;rounded=0;exitX=1;exitY=0.5;exitDx=0;exitDy=0;" parent="1" source="p4hdSAo7ATjIJQ8qtVKv-14" edge="1">
          <mxGeometry relative="1" as="geometry">
            <mxPoint x="30" y="830" as="sourcePoint" />
            <mxPoint x="360" y="720" as="targetPoint" />
            <Array as="points">
              <mxPoint x="330" y="830" />
              <mxPoint x="360" y="830" />
            </Array>
          </mxGeometry>
        </mxCell>
        <mxCell id="p4hdSAo7ATjIJQ8qtVKv-24" value="" style="endArrow=none;html=1;rounded=0;entryX=0.093;entryY=-0.017;entryDx=0;entryDy=0;entryPerimeter=0;exitX=0.5;exitY=0;exitDx=0;exitDy=0;" parent="1" source="p4hdSAo7ATjIJQ8qtVKv-26" target="cWptr_9K2KnEI4ltxLWX-49" edge="1">
          <mxGeometry relative="1" as="geometry">
            <mxPoint x="260" y="880" as="sourcePoint" />
            <mxPoint x="630" y="870" as="targetPoint" />
            <Array as="points">
              <mxPoint x="260" y="840" />
              <mxPoint x="430" y="840" />
              <mxPoint x="631" y="840" />
            </Array>
          </mxGeometry>
        </mxCell>
        <mxCell id="p4hdSAo7ATjIJQ8qtVKv-25" value="1" style="resizable=0;html=1;whiteSpace=wrap;align=right;verticalAlign=bottom;fontSize=16;fontStyle=1" parent="p4hdSAo7ATjIJQ8qtVKv-24" connectable="0" vertex="1">
          <mxGeometry x="1" relative="1" as="geometry">
            <mxPoint x="-21" y="-29" as="offset" />
          </mxGeometry>
        </mxCell>
        <mxCell id="p4hdSAo7ATjIJQ8qtVKv-26" value="Has" style="shape=rhombus;double=1;perimeter=rhombusPerimeter;whiteSpace=wrap;html=1;align=center;fillColor=#f8cecc;strokeColor=#b85450;fontStyle=1" parent="1" vertex="1">
          <mxGeometry x="200" y="925" width="120" height="60" as="geometry" />
        </mxCell>
        <mxCell id="p4hdSAo7ATjIJQ8qtVKv-28" value="" style="shape=link;html=1;rounded=0;exitX=0;exitY=0.5;exitDx=0;exitDy=0;entryX=1;entryY=0.5;entryDx=0;entryDy=0;" parent="1" source="p4hdSAo7ATjIJQ8qtVKv-26" target="p4hdSAo7ATjIJQ8qtVKv-2" edge="1">
          <mxGeometry relative="1" as="geometry">
            <mxPoint x="-22" y="940" as="sourcePoint" />
            <mxPoint x="-22" y="870" as="targetPoint" />
          </mxGeometry>
        </mxCell>
        <mxCell id="p4hdSAo7ATjIJQ8qtVKv-29" value="N" style="resizable=0;html=1;whiteSpace=wrap;align=right;verticalAlign=bottom;fontSize=16;fontStyle=1" parent="p4hdSAo7ATjIJQ8qtVKv-28" connectable="0" vertex="1">
          <mxGeometry x="1" relative="1" as="geometry">
            <mxPoint x="38" y="-5" as="offset" />
          </mxGeometry>
        </mxCell>
        <mxCell id="p4hdSAo7ATjIJQ8qtVKv-30" value="" style="endArrow=none;html=1;rounded=0;entryX=0.5;entryY=0;entryDx=0;entryDy=0;" parent="1" target="p4hdSAo7ATjIJQ8qtVKv-39" edge="1">
          <mxGeometry relative="1" as="geometry">
            <mxPoint x="360" y="690" as="sourcePoint" />
            <mxPoint x="1070" y="800" as="targetPoint" />
            <Array as="points">
              <mxPoint x="390" y="690" />
              <mxPoint x="860" y="690" />
              <mxPoint x="1350" y="690" />
            </Array>
          </mxGeometry>
        </mxCell>
        <mxCell id="p4hdSAo7ATjIJQ8qtVKv-31" value="1" style="resizable=0;html=1;whiteSpace=wrap;align=right;verticalAlign=bottom;fontSize=16;fontStyle=1" parent="p4hdSAo7ATjIJQ8qtVKv-30" connectable="0" vertex="1">
          <mxGeometry x="1" relative="1" as="geometry">
            <mxPoint x="-310" y="-145" as="offset" />
          </mxGeometry>
        </mxCell>
        <mxCell id="p4hdSAo7ATjIJQ8qtVKv-32" value="VOTE" style="whiteSpace=wrap;html=1;align=center;fillColor=#fff2cc;strokeColor=#d6b656;fontStyle=1" parent="1" vertex="1">
          <mxGeometry x="1295" y="930" width="110" height="50" as="geometry" />
        </mxCell>
        <mxCell id="p4hdSAo7ATjIJQ8qtVKv-33" value="&lt;i&gt;USEFUL&lt;/i&gt;&lt;br&gt;&lt;b&gt;YES&amp;nbsp;&lt;/b&gt;/&amp;nbsp;&lt;b&gt;NO&lt;/b&gt;" style="ellipse;whiteSpace=wrap;html=1;align=center;fillColor=#d5e8d4;strokeColor=#82b366;" parent="1" vertex="1">
          <mxGeometry x="1607.5" y="1030" width="115" height="50" as="geometry" />
        </mxCell>
        <mxCell id="p4hdSAo7ATjIJQ8qtVKv-34" value="VOTE_ID" style="ellipse;whiteSpace=wrap;html=1;align=center;fontStyle=5;fillColor=#d5e8d4;strokeColor=#82b366;" parent="1" vertex="1">
          <mxGeometry x="1602.5" y="850" width="120" height="50" as="geometry" />
        </mxCell>
        <mxCell id="p4hdSAo7ATjIJQ8qtVKv-35" value="MOMENT_AGO" style="ellipse;whiteSpace=wrap;html=1;align=center;dashed=1;fillColor=#d5e8d4;strokeColor=#82b366;" parent="1" vertex="1">
          <mxGeometry x="1602.5" y="935" width="120" height="50" as="geometry" />
        </mxCell>
        <mxCell id="p4hdSAo7ATjIJQ8qtVKv-36" value="" style="endArrow=none;html=1;rounded=0;entryX=1;entryY=0.5;entryDx=0;entryDy=0;exitX=0;exitY=0.5;exitDx=0;exitDy=0;" parent="1" source="p4hdSAo7ATjIJQ8qtVKv-34" target="p4hdSAo7ATjIJQ8qtVKv-32" edge="1">
          <mxGeometry relative="1" as="geometry">
            <mxPoint x="1532.5" y="900" as="sourcePoint" />
            <mxPoint x="1672.5" y="930" as="targetPoint" />
          </mxGeometry>
        </mxCell>
        <mxCell id="p4hdSAo7ATjIJQ8qtVKv-37" value="" style="endArrow=none;html=1;rounded=0;entryX=1;entryY=0.5;entryDx=0;entryDy=0;exitX=0;exitY=0.5;exitDx=0;exitDy=0;" parent="1" source="p4hdSAo7ATjIJQ8qtVKv-33" target="p4hdSAo7ATjIJQ8qtVKv-32" edge="1">
          <mxGeometry relative="1" as="geometry">
            <mxPoint x="1582.5" y="1050" as="sourcePoint" />
            <mxPoint x="1290" y="960" as="targetPoint" />
          </mxGeometry>
        </mxCell>
        <mxCell id="p4hdSAo7ATjIJQ8qtVKv-38" value="" style="endArrow=none;html=1;rounded=0;entryX=1;entryY=0.5;entryDx=0;entryDy=0;exitX=0;exitY=0.5;exitDx=0;exitDy=0;" parent="1" source="p4hdSAo7ATjIJQ8qtVKv-35" target="p4hdSAo7ATjIJQ8qtVKv-32" edge="1">
          <mxGeometry relative="1" as="geometry">
            <mxPoint x="1212.5" y="1014.5" as="sourcePoint" />
            <mxPoint x="1297.5" y="1010" as="targetPoint" />
          </mxGeometry>
        </mxCell>
        <mxCell id="p4hdSAo7ATjIJQ8qtVKv-39" value="Voting" style="shape=rhombus;double=1;perimeter=rhombusPerimeter;whiteSpace=wrap;html=1;align=center;fontStyle=1;fillColor=#f8cecc;strokeColor=#b85450;" parent="1" vertex="1">
          <mxGeometry x="1290" y="800" width="120" height="60" as="geometry" />
        </mxCell>
        <mxCell id="p4hdSAo7ATjIJQ8qtVKv-40" value="" style="shape=link;html=1;rounded=0;exitX=0.5;exitY=0;exitDx=0;exitDy=0;entryX=0.5;entryY=1;entryDx=0;entryDy=0;" parent="1" source="p4hdSAo7ATjIJQ8qtVKv-32" target="p4hdSAo7ATjIJQ8qtVKv-39" edge="1">
          <mxGeometry relative="1" as="geometry">
            <mxPoint x="1432.5" y="760" as="sourcePoint" />
            <mxPoint x="1592.5" y="760" as="targetPoint" />
          </mxGeometry>
        </mxCell>
        <mxCell id="p4hdSAo7ATjIJQ8qtVKv-41" value="N" style="resizable=0;html=1;whiteSpace=wrap;align=right;verticalAlign=bottom;fontSize=16;fontStyle=1" parent="p4hdSAo7ATjIJQ8qtVKv-40" connectable="0" vertex="1">
          <mxGeometry x="1" relative="1" as="geometry">
            <mxPoint x="23" y="60" as="offset" />
          </mxGeometry>
        </mxCell>
        <mxCell id="p4hdSAo7ATjIJQ8qtVKv-44" value="" style="endArrow=none;html=1;rounded=0;exitX=1;exitY=0.5;exitDx=0;exitDy=0;entryX=0.5;entryY=0;entryDx=0;entryDy=0;" parent="1" source="cWptr_9K2KnEI4ltxLWX-49" target="p4hdSAo7ATjIJQ8qtVKv-46" edge="1">
          <mxGeometry relative="1" as="geometry">
            <mxPoint x="740" y="899" as="sourcePoint" />
            <mxPoint x="1080" y="900" as="targetPoint" />
            <Array as="points">
              <mxPoint x="1010" y="900" />
            </Array>
          </mxGeometry>
        </mxCell>
        <mxCell id="p4hdSAo7ATjIJQ8qtVKv-45" value="1" style="resizable=0;html=1;whiteSpace=wrap;align=right;verticalAlign=bottom;fontSize=16;fontStyle=1" parent="p4hdSAo7ATjIJQ8qtVKv-44" connectable="0" vertex="1">
          <mxGeometry x="1" relative="1" as="geometry">
            <mxPoint x="-230" y="-30" as="offset" />
          </mxGeometry>
        </mxCell>
        <mxCell id="p4hdSAo7ATjIJQ8qtVKv-46" value="Has" style="shape=rhombus;double=1;perimeter=rhombusPerimeter;whiteSpace=wrap;html=1;align=center;fillColor=#f8cecc;strokeColor=#b85450;fontStyle=1" parent="1" vertex="1">
          <mxGeometry x="950" y="925" width="120" height="60" as="geometry" />
        </mxCell>
        <mxCell id="p4hdSAo7ATjIJQ8qtVKv-47" value="" style="shape=link;html=1;rounded=0;exitX=1;exitY=0.5;exitDx=0;exitDy=0;entryX=0;entryY=0.5;entryDx=0;entryDy=0;" parent="1" source="p4hdSAo7ATjIJQ8qtVKv-46" target="p4hdSAo7ATjIJQ8qtVKv-32" edge="1">
          <mxGeometry relative="1" as="geometry">
            <mxPoint x="1230" y="910" as="sourcePoint" />
            <mxPoint x="1290" y="950" as="targetPoint" />
          </mxGeometry>
        </mxCell>
        <mxCell id="p4hdSAo7ATjIJQ8qtVKv-48" value="N" style="resizable=0;html=1;whiteSpace=wrap;align=right;verticalAlign=bottom;fontSize=16;fontStyle=1" parent="p4hdSAo7ATjIJQ8qtVKv-47" connectable="0" vertex="1">
          <mxGeometry x="1" relative="1" as="geometry">
            <mxPoint x="-45" y="-5" as="offset" />
          </mxGeometry>
        </mxCell>
        <mxCell id="Z67yp4dXI5KX4pz4IDJM-1" value="REPLY" style="whiteSpace=wrap;html=1;align=center;fontStyle=1;fillColor=#fff2cc;strokeColor=#d6b656;" parent="1" vertex="1">
          <mxGeometry x="-530" y="705" width="110" height="50" as="geometry" />
        </mxCell>
        <mxCell id="Z67yp4dXI5KX4pz4IDJM-2" value="" style="endArrow=none;html=1;rounded=0;exitX=1;exitY=0.5;exitDx=0;exitDy=0;" parent="1" source="Z67yp4dXI5KX4pz4IDJM-5" edge="1">
          <mxGeometry relative="1" as="geometry">
            <mxPoint x="40" y="755" as="sourcePoint" />
            <mxPoint x="360" y="730" as="targetPoint" />
            <Array as="points">
              <mxPoint x="220" y="730" />
            </Array>
          </mxGeometry>
        </mxCell>
        <mxCell id="Z67yp4dXI5KX4pz4IDJM-5" value="Replies" style="shape=rhombus;double=1;perimeter=rhombusPerimeter;whiteSpace=wrap;html=1;align=center;fillColor=#f8cecc;strokeColor=#b85450;fontStyle=1" parent="1" vertex="1">
          <mxGeometry x="-97.5" y="700" width="120" height="60" as="geometry" />
        </mxCell>
        <mxCell id="Z67yp4dXI5KX4pz4IDJM-6" value="" style="shape=link;html=1;rounded=0;exitX=0;exitY=0.5;exitDx=0;exitDy=0;entryX=1;entryY=0.5;entryDx=0;entryDy=0;" parent="1" source="Z67yp4dXI5KX4pz4IDJM-5" target="Z67yp4dXI5KX4pz4IDJM-1" edge="1">
          <mxGeometry relative="1" as="geometry">
            <mxPoint x="-22" y="940" as="sourcePoint" />
            <mxPoint x="-22" y="870" as="targetPoint" />
          </mxGeometry>
        </mxCell>
        <mxCell id="Z67yp4dXI5KX4pz4IDJM-7" value="N" style="resizable=0;html=1;whiteSpace=wrap;align=right;verticalAlign=bottom;fontSize=16;fontStyle=1" parent="Z67yp4dXI5KX4pz4IDJM-6" connectable="0" vertex="1">
          <mxGeometry x="1" relative="1" as="geometry">
            <mxPoint x="39" y="-10" as="offset" />
          </mxGeometry>
        </mxCell>
        <mxCell id="Z67yp4dXI5KX4pz4IDJM-8" value="REPLY_ID" style="ellipse;whiteSpace=wrap;html=1;align=center;fontStyle=5;fillColor=#d5e8d4;strokeColor=#82b366;" parent="1" vertex="1">
          <mxGeometry x="-750" y="640" width="120" height="50" as="geometry" />
        </mxCell>
        <mxCell id="Z67yp4dXI5KX4pz4IDJM-9" value="" style="endArrow=none;html=1;rounded=0;entryX=0;entryY=0.5;entryDx=0;entryDy=0;" parent="1" target="Z67yp4dXI5KX4pz4IDJM-1" edge="1">
          <mxGeometry relative="1" as="geometry">
            <mxPoint x="-627.5" y="664.5" as="sourcePoint" />
            <mxPoint x="-547" y="725" as="targetPoint" />
          </mxGeometry>
        </mxCell>
        <mxCell id="Z67yp4dXI5KX4pz4IDJM-10" value="TEXT" style="ellipse;whiteSpace=wrap;html=1;align=center;fontStyle=0;fillColor=#d5e8d4;strokeColor=#82b366;" parent="1" vertex="1">
          <mxGeometry x="-800" y="705" width="115" height="50" as="geometry" />
        </mxCell>
        <mxCell id="Z67yp4dXI5KX4pz4IDJM-11" value="" style="endArrow=none;html=1;rounded=0;entryX=0;entryY=0.5;entryDx=0;entryDy=0;exitX=1;exitY=0.5;exitDx=0;exitDy=0;" parent="1" source="Z67yp4dXI5KX4pz4IDJM-10" target="Z67yp4dXI5KX4pz4IDJM-1" edge="1">
          <mxGeometry relative="1" as="geometry">
            <mxPoint x="-662.5" y="744.5" as="sourcePoint" />
            <mxPoint x="-539.9999999999995" y="730" as="targetPoint" />
          </mxGeometry>
        </mxCell>
        <mxCell id="Z67yp4dXI5KX4pz4IDJM-14" value="" style="endArrow=none;html=1;rounded=0;exitX=0.5;exitY=1;exitDx=0;exitDy=0;" parent="1" source="Z67yp4dXI5KX4pz4IDJM-16" edge="1">
          <mxGeometry relative="1" as="geometry">
            <mxPoint x="-460" y="1200" as="sourcePoint" />
            <mxPoint x="-30" y="1050" as="targetPoint" />
            <Array as="points">
              <mxPoint x="-420" y="1050" />
            </Array>
          </mxGeometry>
        </mxCell>
        <mxCell id="Z67yp4dXI5KX4pz4IDJM-16" value="Has" style="shape=rhombus;double=1;perimeter=rhombusPerimeter;whiteSpace=wrap;html=1;align=center;fillColor=#f8cecc;strokeColor=#b85450;fontStyle=1" parent="1" vertex="1">
          <mxGeometry x="-480" y="940" width="120" height="60" as="geometry" />
        </mxCell>
        <mxCell id="Z67yp4dXI5KX4pz4IDJM-17" value="" style="shape=link;html=1;rounded=0;exitX=0.5;exitY=0;exitDx=0;exitDy=0;entryX=0.75;entryY=1;entryDx=0;entryDy=0;" parent="1" source="Z67yp4dXI5KX4pz4IDJM-16" target="Z67yp4dXI5KX4pz4IDJM-1" edge="1">
          <mxGeometry relative="1" as="geometry">
            <mxPoint x="-400" y="858.89" as="sourcePoint" />
            <mxPoint x="-577" y="858.89" as="targetPoint" />
            <Array as="points">
              <mxPoint x="-420" y="870" />
              <mxPoint x="-447" y="870" />
            </Array>
          </mxGeometry>
        </mxCell>
        <mxCell id="Z67yp4dXI5KX4pz4IDJM-18" value="N" style="resizable=0;html=1;whiteSpace=wrap;align=right;verticalAlign=bottom;fontSize=16;fontStyle=1" parent="Z67yp4dXI5KX4pz4IDJM-17" connectable="0" vertex="1">
          <mxGeometry x="1" relative="1" as="geometry">
            <mxPoint x="28" y="36" as="offset" />
          </mxGeometry>
        </mxCell>
        <mxCell id="-vruVM9NbfEZ0vpy5V1d-1" value="" style="endArrow=none;html=1;rounded=0;entryX=0.5;entryY=1;entryDx=0;entryDy=0;exitX=0.5;exitY=1;exitDx=0;exitDy=0;" parent="1" source="p4hdSAo7ATjIJQ8qtVKv-2" target="p4hdSAo7ATjIJQ8qtVKv-46" edge="1">
          <mxGeometry relative="1" as="geometry">
            <mxPoint x="-10" y="1060" as="sourcePoint" />
            <mxPoint x="1030" y="1160" as="targetPoint" />
            <Array as="points">
              <mxPoint x="-30" y="1110" />
              <mxPoint x="430" y="1110" />
              <mxPoint x="1010" y="1110" />
            </Array>
          </mxGeometry>
        </mxCell>
        <mxCell id="-vruVM9NbfEZ0vpy5V1d-2" value="1" style="resizable=0;html=1;whiteSpace=wrap;align=right;verticalAlign=bottom;fontSize=16;fontStyle=1" parent="-vruVM9NbfEZ0vpy5V1d-1" connectable="0" vertex="1">
          <mxGeometry x="1" relative="1" as="geometry">
            <mxPoint x="-1020" y="45" as="offset" />
          </mxGeometry>
        </mxCell>
        <mxCell id="-vruVM9NbfEZ0vpy5V1d-5" value="1" style="resizable=0;html=1;whiteSpace=wrap;align=right;verticalAlign=bottom;fontSize=16;fontStyle=1" parent="1" connectable="0" vertex="1">
          <mxGeometry x="-480.00000000000045" y="790.004027776438" as="geometry" />
        </mxCell>
        <mxCell id="-vruVM9NbfEZ0vpy5V1d-6" value="" style="endArrow=none;html=1;rounded=0;exitX=0.25;exitY=1;exitDx=0;exitDy=0;entryX=1;entryY=1;entryDx=0;entryDy=0;" parent="1" source="Z67yp4dXI5KX4pz4IDJM-1" target="p4hdSAo7ATjIJQ8qtVKv-46" edge="1">
          <mxGeometry relative="1" as="geometry">
            <mxPoint x="-590" y="979.1700000000001" as="sourcePoint" />
            <mxPoint x="1070" y="1140" as="targetPoint" />
            <Array as="points">
              <mxPoint x="-502" y="1140" />
              <mxPoint x="1040" y="1140" />
            </Array>
          </mxGeometry>
        </mxCell>
        <mxCell id="KrigOX39o-Xlr8WwfD2x-2" value="" style="endArrow=none;html=1;rounded=0;exitX=0.5;exitY=1;exitDx=0;exitDy=0;entryX=0.5;entryY=0;entryDx=0;entryDy=0;" edge="1" parent="1" source="cWptr_9K2KnEI4ltxLWX-49" target="KrigOX39o-Xlr8WwfD2x-4">
          <mxGeometry relative="1" as="geometry">
            <mxPoint x="640" y="1220" as="sourcePoint" />
            <mxPoint x="680" y="1200" as="targetPoint" />
          </mxGeometry>
        </mxCell>
        <mxCell id="KrigOX39o-Xlr8WwfD2x-3" value="1" style="resizable=0;html=1;whiteSpace=wrap;align=right;verticalAlign=bottom;fontSize=16;fontStyle=1" connectable="0" vertex="1" parent="KrigOX39o-Xlr8WwfD2x-2">
          <mxGeometry x="1" relative="1" as="geometry">
            <mxPoint x="-10" y="-180" as="offset" />
          </mxGeometry>
        </mxCell>
        <mxCell id="KrigOX39o-Xlr8WwfD2x-4" value="Has" style="shape=rhombus;double=1;perimeter=rhombusPerimeter;whiteSpace=wrap;html=1;align=center;fillColor=#f8cecc;strokeColor=#b85450;fontStyle=1" vertex="1" parent="1">
          <mxGeometry x="620" y="1170" width="120" height="60" as="geometry" />
        </mxCell>
        <mxCell id="KrigOX39o-Xlr8WwfD2x-5" value="" style="shape=link;html=1;rounded=0;exitX=1;exitY=0.5;exitDx=0;exitDy=0;entryX=0;entryY=0.5;entryDx=0;entryDy=0;" edge="1" parent="1" source="KrigOX39o-Xlr8WwfD2x-4" target="KrigOX39o-Xlr8WwfD2x-7">
          <mxGeometry relative="1" as="geometry">
            <mxPoint x="750" y="1199.6399999999999" as="sourcePoint" />
            <mxPoint x="1090" y="1200" as="targetPoint" />
          </mxGeometry>
        </mxCell>
        <mxCell id="KrigOX39o-Xlr8WwfD2x-6" value="N" style="resizable=0;html=1;whiteSpace=wrap;align=right;verticalAlign=bottom;fontSize=16;fontStyle=1" connectable="0" vertex="1" parent="KrigOX39o-Xlr8WwfD2x-5">
          <mxGeometry x="1" relative="1" as="geometry">
            <mxPoint x="-45" y="-5" as="offset" />
          </mxGeometry>
        </mxCell>
        <mxCell id="KrigOX39o-Xlr8WwfD2x-7" value="MEDIA" style="whiteSpace=wrap;html=1;align=center;fillColor=#fff2cc;strokeColor=#d6b656;fontStyle=1" vertex="1" parent="1">
          <mxGeometry x="1100" y="1175" width="110" height="50" as="geometry" />
        </mxCell>
        <mxCell id="KrigOX39o-Xlr8WwfD2x-8" value="&lt;b&gt;PHOTOS&lt;/b&gt; &lt;i&gt;&lt;u&gt;OR&lt;/u&gt;&lt;/i&gt; &lt;b&gt;VIDEOS&lt;/b&gt;" style="text;html=1;align=center;verticalAlign=middle;resizable=0;points=[];autosize=1;strokeColor=none;fillColor=none;" vertex="1" parent="1">
          <mxGeometry x="1085" y="1230" width="140" height="30" as="geometry" />
        </mxCell>
        <mxCell id="KrigOX39o-Xlr8WwfD2x-9" value="MEDIA_ID" style="ellipse;whiteSpace=wrap;html=1;align=center;fontStyle=5;fillColor=#d5e8d4;strokeColor=#82b366;" vertex="1" parent="1">
          <mxGeometry x="1360" y="1110" width="120" height="50" as="geometry" />
        </mxCell>
        <mxCell id="KrigOX39o-Xlr8WwfD2x-10" value="" style="endArrow=none;html=1;rounded=0;entryX=1;entryY=0.5;entryDx=0;entryDy=0;exitX=0;exitY=0.5;exitDx=0;exitDy=0;" edge="1" parent="1" source="KrigOX39o-Xlr8WwfD2x-9" target="KrigOX39o-Xlr8WwfD2x-7">
          <mxGeometry relative="1" as="geometry">
            <mxPoint x="1367.5" y="1150" as="sourcePoint" />
            <mxPoint x="1240" y="1205" as="targetPoint" />
          </mxGeometry>
        </mxCell>
        <mxCell id="KrigOX39o-Xlr8WwfD2x-12" value="&lt;b&gt;LIKE &lt;/b&gt;&lt;u style=&quot;&quot;&gt;&lt;i style=&quot;&quot;&gt;OR&lt;/i&gt;&lt;/u&gt;&lt;b&gt; DISLIKE&lt;/b&gt;" style="text;html=1;align=center;verticalAlign=middle;resizable=0;points=[];autosize=1;strokeColor=none;fillColor=none;" vertex="1" parent="1">
          <mxGeometry x="1295" y="985" width="120" height="30" as="geometry" />
        </mxCell>
        <mxCell id="KrigOX39o-Xlr8WwfD2x-13" value="URL" style="ellipse;whiteSpace=wrap;html=1;align=center;fillColor=#d5e8d4;strokeColor=#82b366;" vertex="1" parent="1">
          <mxGeometry x="1365" y="1175" width="115" height="50" as="geometry" />
        </mxCell>
        <mxCell id="KrigOX39o-Xlr8WwfD2x-14" value="" style="endArrow=none;html=1;rounded=0;entryX=1;entryY=0.5;entryDx=0;entryDy=0;exitX=0;exitY=0.5;exitDx=0;exitDy=0;" edge="1" parent="1" source="KrigOX39o-Xlr8WwfD2x-13" target="KrigOX39o-Xlr8WwfD2x-7">
          <mxGeometry relative="1" as="geometry">
            <mxPoint x="1360" y="1145" as="sourcePoint" />
            <mxPoint x="1220" y="1210" as="targetPoint" />
          </mxGeometry>
        </mxCell>
        <mxCell id="KrigOX39o-Xlr8WwfD2x-15" value="&lt;b&gt;U&lt;/b&gt;RL OF &lt;b&gt;PHOTO&lt;/b&gt;&amp;nbsp;&lt;font style=&quot;font-size: 17px;&quot;&gt;/&lt;/font&gt;&amp;nbsp;&lt;b&gt;VIDEO&lt;/b&gt;" style="text;html=1;align=center;verticalAlign=middle;resizable=0;points=[];autosize=1;strokeColor=none;fillColor=none;" vertex="1" parent="1">
          <mxGeometry x="1340" y="1230" width="160" height="30" as="geometry" />
        </mxCell>
        <mxCell id="KrigOX39o-Xlr8WwfD2x-16" value="SHARE" style="whiteSpace=wrap;html=1;align=center;fillColor=#fff2cc;strokeColor=#d6b656;fontStyle=1" vertex="1" parent="1">
          <mxGeometry x="625" y="1370" width="110" height="50" as="geometry" />
        </mxCell>
        <mxCell id="KrigOX39o-Xlr8WwfD2x-17" value="" style="shape=link;html=1;rounded=0;exitX=0.5;exitY=1;exitDx=0;exitDy=0;entryX=0.5;entryY=0;entryDx=0;entryDy=0;" edge="1" parent="1" source="KrigOX39o-Xlr8WwfD2x-4" target="KrigOX39o-Xlr8WwfD2x-16">
          <mxGeometry relative="1" as="geometry">
            <mxPoint x="750" y="1210" as="sourcePoint" />
            <mxPoint x="1110" y="1210" as="targetPoint" />
          </mxGeometry>
        </mxCell>
        <mxCell id="KrigOX39o-Xlr8WwfD2x-18" value="N" style="resizable=0;html=1;whiteSpace=wrap;align=right;verticalAlign=bottom;fontSize=16;fontStyle=1" connectable="0" vertex="1" parent="KrigOX39o-Xlr8WwfD2x-17">
          <mxGeometry x="1" relative="1" as="geometry">
            <mxPoint x="30" y="-100" as="offset" />
          </mxGeometry>
        </mxCell>
        <mxCell id="KrigOX39o-Xlr8WwfD2x-19" value="" style="endArrow=none;html=1;rounded=0;entryX=0.5;entryY=0;entryDx=0;entryDy=0;" edge="1" parent="1" target="KrigOX39o-Xlr8WwfD2x-21">
          <mxGeometry relative="1" as="geometry">
            <mxPoint x="360" y="660" as="sourcePoint" />
            <mxPoint x="320" y="1170" as="targetPoint" />
            <Array as="points">
              <mxPoint x="320" y="660" />
            </Array>
          </mxGeometry>
        </mxCell>
        <mxCell id="KrigOX39o-Xlr8WwfD2x-21" value="&lt;b&gt;Share&lt;/b&gt;" style="shape=rhombus;double=1;perimeter=rhombusPerimeter;whiteSpace=wrap;html=1;align=center;fillColor=#f8cecc;strokeColor=#b85450;" vertex="1" parent="1">
          <mxGeometry x="260" y="1170" width="120" height="60" as="geometry" />
        </mxCell>
        <mxCell id="KrigOX39o-Xlr8WwfD2x-22" value="" style="shape=link;html=1;rounded=0;" edge="1" parent="1">
          <mxGeometry relative="1" as="geometry">
            <mxPoint x="320" y="1230" as="sourcePoint" />
            <mxPoint x="680" y="1300" as="targetPoint" />
            <Array as="points">
              <mxPoint x="320" y="1300" />
            </Array>
          </mxGeometry>
        </mxCell>
        <mxCell id="KrigOX39o-Xlr8WwfD2x-24" value="N" style="resizable=0;html=1;whiteSpace=wrap;align=right;verticalAlign=bottom;fontSize=16;fontStyle=1" connectable="0" vertex="1" parent="1">
          <mxGeometry x="700" y="1280" as="geometry">
            <mxPoint x="-345" y="-11" as="offset" />
          </mxGeometry>
        </mxCell>
        <mxCell id="KrigOX39o-Xlr8WwfD2x-26" value="SHARE_ID" style="ellipse;whiteSpace=wrap;html=1;align=center;fontStyle=5;fillColor=#d5e8d4;strokeColor=#82b366;" vertex="1" parent="1">
          <mxGeometry x="620" y="1560" width="120" height="50" as="geometry" />
        </mxCell>
        <mxCell id="KrigOX39o-Xlr8WwfD2x-27" value="" style="endArrow=none;html=1;rounded=0;entryX=0.5;entryY=1;entryDx=0;entryDy=0;exitX=0.5;exitY=0;exitDx=0;exitDy=0;" edge="1" parent="1" source="KrigOX39o-Xlr8WwfD2x-26" target="KrigOX39o-Xlr8WwfD2x-16">
          <mxGeometry relative="1" as="geometry">
            <mxPoint x="627.5" y="1600" as="sourcePoint" />
            <mxPoint x="470" y="1650" as="targetPoint" />
          </mxGeometry>
        </mxCell>
        <mxCell id="KrigOX39o-Xlr8WwfD2x-30" value="&lt;i&gt;USER_ID&lt;/i&gt;" style="ellipse;whiteSpace=wrap;html=1;align=center;fillColor=#d5e8d4;strokeColor=#82b366;" vertex="1" parent="1">
          <mxGeometry x="485" y="1560" width="115" height="50" as="geometry" />
        </mxCell>
        <mxCell id="KrigOX39o-Xlr8WwfD2x-31" value="" style="endArrow=none;html=1;rounded=0;entryX=0.5;entryY=1;entryDx=0;entryDy=0;exitX=0.5;exitY=0;exitDx=0;exitDy=0;" edge="1" parent="1" source="KrigOX39o-Xlr8WwfD2x-30" target="KrigOX39o-Xlr8WwfD2x-16">
          <mxGeometry relative="1" as="geometry">
            <mxPoint x="480" y="1530" as="sourcePoint" />
            <mxPoint x="330" y="1585" as="targetPoint" />
          </mxGeometry>
        </mxCell>
        <mxCell id="KrigOX39o-Xlr8WwfD2x-32" value="&lt;i&gt;POST_ID&lt;/i&gt;" style="ellipse;whiteSpace=wrap;html=1;align=center;fillColor=#d5e8d4;strokeColor=#82b366;" vertex="1" parent="1">
          <mxGeometry x="750" y="1560" width="115" height="50" as="geometry" />
        </mxCell>
        <mxCell id="KrigOX39o-Xlr8WwfD2x-33" value="" style="endArrow=none;html=1;rounded=0;exitX=0.5;exitY=0;exitDx=0;exitDy=0;entryX=0.5;entryY=1;entryDx=0;entryDy=0;" edge="1" parent="1" source="KrigOX39o-Xlr8WwfD2x-32" target="KrigOX39o-Xlr8WwfD2x-16">
          <mxGeometry relative="1" as="geometry">
            <mxPoint x="860" y="1510" as="sourcePoint" />
            <mxPoint x="680" y="1420" as="targetPoint" />
          </mxGeometry>
        </mxCell>
        <mxCell id="KrigOX39o-Xlr8WwfD2x-40" value="Follow" style="shape=rhombus;double=1;perimeter=rhombusPerimeter;whiteSpace=wrap;html=1;align=center;fillColor=#f8cecc;strokeColor=#b85450;fontStyle=1" vertex="1" parent="1">
          <mxGeometry x="620" y="450" width="120" height="60" as="geometry" />
        </mxCell>
        <mxCell id="KrigOX39o-Xlr8WwfD2x-41" value="" style="endArrow=none;html=1;rounded=0;entryX=0;entryY=0.5;entryDx=0;entryDy=0;" edge="1" parent="1" target="KrigOX39o-Xlr8WwfD2x-40">
          <mxGeometry relative="1" as="geometry">
            <mxPoint x="600" y="590" as="sourcePoint" />
            <mxPoint x="520" y="470" as="targetPoint" />
            <Array as="points">
              <mxPoint x="600" y="480" />
            </Array>
          </mxGeometry>
        </mxCell>
        <mxCell id="KrigOX39o-Xlr8WwfD2x-43" value="" style="shape=link;html=1;rounded=0;exitX=1;exitY=0.5;exitDx=0;exitDy=0;" edge="1" parent="1" source="KrigOX39o-Xlr8WwfD2x-40">
          <mxGeometry relative="1" as="geometry">
            <mxPoint x="750" y="600" as="sourcePoint" />
            <mxPoint x="760" y="590" as="targetPoint" />
            <Array as="points">
              <mxPoint x="760" y="480" />
            </Array>
          </mxGeometry>
        </mxCell>
        <mxCell id="KrigOX39o-Xlr8WwfD2x-50" value="Follow" style="shape=rhombus;double=1;perimeter=rhombusPerimeter;whiteSpace=wrap;html=1;align=center;fillColor=#f8cecc;strokeColor=#b85450;fontStyle=1" vertex="1" parent="1">
          <mxGeometry x="300" y="150" width="120" height="60" as="geometry" />
        </mxCell>
        <mxCell id="KrigOX39o-Xlr8WwfD2x-51" value="" style="shape=link;html=1;rounded=0;exitX=1;exitY=0;exitDx=0;exitDy=0;entryX=1;entryY=0.5;entryDx=0;entryDy=0;" edge="1" parent="1" source="cWptr_9K2KnEI4ltxLWX-1" target="KrigOX39o-Xlr8WwfD2x-50">
          <mxGeometry relative="1" as="geometry">
            <mxPoint x="590" y="360" as="sourcePoint" />
            <mxPoint x="470" y="180" as="targetPoint" />
            <Array as="points">
              <mxPoint x="570" y="560" />
              <mxPoint x="570" y="180" />
            </Array>
          </mxGeometry>
        </mxCell>
        <mxCell id="KrigOX39o-Xlr8WwfD2x-52" value="M" style="resizable=0;html=1;whiteSpace=wrap;align=right;verticalAlign=bottom;fontSize=15;fontStyle=1" connectable="0" vertex="1" parent="KrigOX39o-Xlr8WwfD2x-51">
          <mxGeometry x="1" relative="1" as="geometry">
            <mxPoint x="40" y="380" as="offset" />
          </mxGeometry>
        </mxCell>
        <mxCell id="KrigOX39o-Xlr8WwfD2x-53" value="" style="shape=link;html=1;rounded=0;exitX=0;exitY=0.5;exitDx=0;exitDy=0;entryX=0;entryY=0;entryDx=0;entryDy=0;" edge="1" parent="1" source="KrigOX39o-Xlr8WwfD2x-50" target="cWptr_9K2KnEI4ltxLWX-1">
          <mxGeometry relative="1" as="geometry">
            <mxPoint x="750" y="600" as="sourcePoint" />
            <mxPoint x="140" y="470" as="targetPoint" />
            <Array as="points">
              <mxPoint x="90" y="180" />
              <mxPoint x="90" y="420" />
            </Array>
          </mxGeometry>
        </mxCell>
        <mxCell id="KrigOX39o-Xlr8WwfD2x-54" value="N" style="resizable=0;html=1;whiteSpace=wrap;align=right;verticalAlign=bottom;fontSize=15;fontStyle=1" connectable="0" vertex="1" parent="KrigOX39o-Xlr8WwfD2x-53">
          <mxGeometry x="1" relative="1" as="geometry">
            <mxPoint x="-5" y="-20" as="offset" />
          </mxGeometry>
        </mxCell>
      </root>
    </mxGraphModel>
  </diagram>
</mxfile>
